<?xml version="1.0" encoding="UTF-8"?>
<svg id="Layer_1" data-name="Layer 1" xmlns="http://www.w3.org/2000/svg" viewBox="0 0 444.07 106.11">
  <defs>
    <style>
      .cls-1 {
        fill: #27a8e0;
      }

      .cls-2 {
        fill: #f1f2f2;
      }

      .cls-3 {
        fill: #d1d2d3;
      }
    </style>
  </defs>
  <g>
    <path class="cls-2" d="M67.03,69.5c4.17,0,7.55-2.9,9.49-6.59,.91-1.87,2.05-4.71,2.05-7.31s-.54-6.59-1.51-10.58l-.3-.18c-2.12,1.57-4.05,3.44-5.86,5.32,1.21,3.38,2.18,7.13,2.18,9.37,0,1.69-1.69,2.66-3.57,2.66-3.2,0-7.25-1.81-7.25-6.47,0-1.57,.18-3.57,.66-5.68l-.24-.3-4.05,2.05-1.63,5.56c-.66,2.12-2.05,3.44-3.81,4.41-1.57,.85-3.32,1.21-4.47,1.21-4.17,0-4.59-3.32-5.5-5.08-1.21-3.08-2.42-5.8-4.29-8.64h-.36c-1.81,2.12-3.32,4.11-4.47,6.1,3.81,6.04,6.29,9.07,6.95,15.65-1.81,6.04-11.91,11.18-20.07,11.18-8.82,0-16.44-4.47-16.44-13.84,0-3.44,1.21-6.95,3.2-10.7l-2.54-1.03c-3.14,4.11-5.2,9.85-5.2,16.02,0,10.03,6.53,17.53,19.58,17.53,9.31,0,19.28-4.59,22.66-11.18,1.21-2.42,2.05-4.96,2.3-8.7h1.75c5.62,0,9.19-2.6,11.42-5.38h.18c2.48,3.02,5.92,4.59,9.13,4.59Z"/>
    <path class="cls-2" d="M87.51,42.31l-.42-.06c-1.63,2.36-3.2,4.71-4.77,7.13,2.96,3.81,5.62,8.04,8.1,12.57,.42,.91,.91,2.05,.91,3.02,0,.66-.18,1.57-.73,2.54-4.41,8.46-14.08,15.41-23.57,15.41-2.96,0-5.38-.48-7.43-1.03l-.73,1.87c6.59,2.84,12.27,4.41,17.22,4.41,3.38,0,7.01-1.51,11.06-5.2,5.2-5.38,8.46-10.82,8.46-15.9v-6.29c0-4.9-1.57-8.04-3.38-10.88l-4.71-7.62Z"/>
    <path class="cls-2" d="M126.07,43.58c-4.47-4.71-10.64-8.94-16.08-11.79l-.54,.06c-1.57,2.12-3.44,5.08-3.44,6.53,0,.66,.54,1.45,2.18,2.12,4.77,2.05,9.91,5.2,13.72,8.64,3.99,3.75,6.35,7.8,6.35,10.88,0,.42-.48,.91-1.33,1.33-4.9,2.42-9.37,3.75-14.63,3.75-8.4,0-10.82-3.87-11.06-8.82v-.06h-2.72c-.3,1.81-.3,3.2-.3,4.17,0,8.46,5.2,12.09,12.87,12.09,6.35,0,12.75-2.36,18.68-5.32,1.69-3.08,2.78-6.47,2.78-10.03,.18-4.77-2.36-9.19-6.47-13.54Z"/>
    <path class="cls-2" d="M142.21,61.28c0,3.81-.06,7.86-.73,11.42l.85,.36c3.87-3.69,5.68-6.04,5.92-9.19,.3-2.54,.48-5.98,.48-9.43,0-13.3-.36-27.74-1.75-40.19l-.6-.18c-2.05,1.57-4.71,3.99-6.59,6.04,1.09,9.91,2.42,25.08,2.42,35.54v5.62h0Z"/>
    <path class="cls-2" d="M197.09,20.19c-2.66-2.36-5.32-4.41-8.1-6.1-1.81,1.75-3.63,3.81-5.44,5.8,2.72,1.93,5.26,3.81,7.92,5.86,2.3-1.63,4.11-3.51,5.62-5.56Z"/>
    <path class="cls-2" d="M204.7,43.45c-3.08-6.89-7.43-11.3-12.81-11.3-3.02,0-5.98,1.51-8.64,3.81-3.2,2.84-5.02,7.01-5.02,11.24,0,1.51,.36,2.9,.97,4.11,2.36,4.41,8.34,6.16,16.08,6.16,2.42,0,5.2,0,7.62-.18,.18,.36,.18,.85,.18,1.21,0,1.51-3.63,3.69-7.92,4.77-3.81,.97-8.82,1.15-14.69,1.15v-.06h-5.68c-.3,0-.6,0-.85,.06h-.24c-7.8,0-11.3-4.47-15.11-12.33l-.48,.06c-1.15,1.87-2.36,3.99-3.69,6.65,1.57,2.78,3.2,5.32,5.86,8.46,.85,.97,1.51,1.87,1.81,2.6-1.51,8.46-13.3,17.1-22.3,17.1-3.44,0-5.92-.54-7.74-1.21l-.97,1.87c5.56,2.54,11.79,4.47,16.8,4.47s10.76-3.44,16.08-11.36c1.81-2.78,2.72-6.16,2.72-8.82,0-.66-.12-1.33-.18-2.05h.24c1.63,1.27,3.81,1.81,6.77,1.81h6.77c11.97,0,19.7-1.57,23.99-5.62,2.36-2.3,3.32-5.32,3.32-9.01-.12-5.44-1.27-9.79-2.9-13.6Zm-22.36,1.33c0-2.18,3.63-5.08,8.1-5.08,5.44,0,10.03,5.62,11.42,11.06-10.64,.06-19.52-1.39-19.52-5.98Z"/>
  </g>
  <g>
    <g>
      <path class="cls-3" d="M278.5,14.08c.3-1.03-.54-2.05-1.87-2.24-2.6-.36-5.2-.66-7.8-.85-1.33-.06-2.66,.66-3.02,1.69-.66,1.93-1.33,3.87-1.99,5.8-.36,1.03,.48,1.87,1.87,1.93,2.72,.18,5.44,.54,8.16,.97,1.39,.18,2.78-.36,3.02-1.45,.48-1.93,1.03-3.93,1.63-5.86Z"/>
      <path class="cls-3" d="M292.88,17.77c.18-1.03-.66-2.24-1.99-2.66-2.6-.79-5.14-1.45-7.74-2.05-1.33-.3-2.6,.3-2.9,1.33-.54,1.93-1.09,3.99-1.57,5.98-.3,1.03,.6,2.05,1.99,2.36,2.72,.6,5.38,1.33,8.1,2.12,1.39,.42,2.66,0,2.84-1.09,.42-1.93,.85-3.99,1.27-5.98Z"/>
      <path class="cls-3" d="M307.09,23.57c.18-1.03-.79-2.42-2.05-3.02-2.54-1.21-5.08-2.24-7.62-3.26-1.27-.48-2.54,0-2.72,1.03-.36,1.99-.79,4.05-1.21,6.04-.18,1.03,.73,2.24,2.12,2.78,2.66,1.03,5.38,2.12,7.98,3.26,1.39,.6,2.6,.3,2.66-.73,.3-1.99,.6-4.05,.85-6.1Z"/>
      <path class="cls-3" d="M321.05,31.67c.06-1.03-.91-2.6-2.12-3.38-2.48-1.57-4.96-3.08-7.43-4.41-1.27-.73-2.42-.36-2.54,.66-.24,2.05-.48,4.05-.73,6.1-.18,1.03,.85,2.42,2.24,3.14,2.66,1.39,5.26,2.84,7.8,4.47,1.33,.85,2.42,.66,2.48-.36,0-2.18,.18-4.17,.3-6.23Z"/>
      <path class="cls-3" d="M275.42,25.08c.3-1.03-.6-2.05-1.99-2.24-2.78-.42-5.44-.73-8.22-.97-1.39-.12-2.84,.66-3.14,1.63-.66,1.93-1.33,3.87-1.99,5.8-.36,1.03,.54,1.87,1.99,1.99,2.84,.24,5.68,.6,8.58,1.09,1.45,.24,2.84-.36,3.14-1.39,.54-1.99,1.09-3.93,1.63-5.92Z"/>
      <path class="cls-3" d="M272.33,36.08c.3-1.03-.66-2.05-2.12-2.3-2.84-.48-5.74-.85-8.58-1.09-1.45-.18-2.96,.6-3.26,1.57-.66,1.93-1.33,3.87-1.99,5.8-.36,1.03,.6,1.87,2.12,2.05,3.02,.3,5.98,.66,8.94,1.21,1.57,.24,3.02-.3,3.26-1.39,.54-1.87,1.09-3.87,1.63-5.86Z"/>
      <path class="cls-3" d="M288.29,40.13c.18-1.03-.79-2.24-2.24-2.66-2.84-.85-5.68-1.57-8.58-2.24-1.45-.3-2.84,.24-3.14,1.27-.54,1.99-1.09,3.99-1.57,5.98-.3,1.03,.73,2.12,2.24,2.42,3.02,.66,5.98,1.45,8.94,2.36,1.57,.48,2.96,0,3.14-1.03,.42-2.05,.79-4.05,1.21-6.1Z"/>
      <path class="cls-3" d="M304.06,46.3c.18-1.03-.91-2.42-2.36-3.02-2.84-1.21-5.62-2.36-8.46-3.38-1.45-.54-2.78-.06-3.02,.97-.36,1.99-.79,4.05-1.21,6.04-.18,1.03,.85,2.3,2.36,2.84,2.96,1.03,5.92,2.18,8.82,3.44,1.51,.66,2.84,.3,2.96-.73,.36-2.12,.66-4.11,.91-6.16Z"/>
      <path class="cls-3" d="M269.25,47.14c.3-1.03-.73-2.05-2.24-2.36-3.02-.48-5.98-.91-9.01-1.21-1.57-.18-3.02,.54-3.38,1.57-.66,1.93-1.33,3.87-1.99,5.8-.36,1.03,.66,1.87,2.24,2.05,3.08,.3,6.23,.79,9.37,1.33,1.57,.3,3.08-.3,3.38-1.27,.54-1.99,1.09-3.99,1.63-5.92Z"/>
      <path class="cls-3" d="M266.17,58.14c.3-1.03-.79-2.12-2.42-2.42-3.14-.54-6.29-1.03-9.43-1.39-1.57-.18-3.14,.54-3.51,1.57-.66,1.93-1.33,3.87-1.99,5.8-.36,1.03,.73,1.93,2.36,2.12,3.26,.36,6.53,.85,9.73,1.45,1.69,.3,3.26-.24,3.51-1.27,.66-1.93,1.21-3.87,1.75-5.86Z"/>
    </g>
    <g>
      <path class="cls-3" d="M362.08,24.48c-.18-1.03-1.27-1.39-2.54-.66-2.48,1.39-5.02,2.84-7.43,4.41-1.27,.85-2.24,2.36-2.12,3.38,.18,2.05,.24,4.11,.36,6.16,.06,1.03,1.21,1.21,2.48,.36,2.6-1.57,5.2-3.08,7.8-4.47,1.39-.73,2.3-2.12,2.24-3.14-.3-1.93-.54-3.99-.79-6.04Z"/>
      <path class="cls-3" d="M376.23,18.37c-.18-1.03-1.45-1.51-2.72-1.03-2.54,.97-5.08,2.05-7.62,3.26-1.27,.6-2.24,1.93-2.05,3.02,.3,2.05,.54,4.05,.85,6.1,.18,1.03,1.39,1.39,2.66,.73,2.66-1.21,5.32-2.3,7.98-3.26,1.39-.48,2.3-1.75,2.12-2.78-.42-2.05-.79-3.99-1.21-6.04Z"/>
      <path class="cls-3" d="M390.61,14.38c-.3-1.03-1.57-1.63-2.9-1.33-2.6,.54-5.2,1.27-7.74,2.05-1.33,.36-2.18,1.57-1.99,2.66,.42,1.99,.85,4.05,1.27,6.04,.18,1.03,1.51,1.51,2.84,1.09,2.66-.85,5.38-1.57,8.1-2.12,1.39-.3,2.3-1.39,1.99-2.36-.48-2.05-1.03-4.05-1.57-6.04Z"/>
      <path class="cls-3" d="M363.47,35.84c-.18-1.03-1.33-1.39-2.66-.66-2.66,1.39-5.26,2.84-7.92,4.47-1.33,.85-2.36,2.36-2.3,3.38,.18,2.05,.24,4.11,.36,6.16,.06,1.03,1.27,1.21,2.66,.36,2.72-1.57,5.44-3.08,8.28-4.47,1.45-.73,2.48-2.12,2.3-3.14-.24-1.99-.48-4.05-.73-6.1Z"/>
      <path class="cls-3" d="M408.86,23.51c-.36-1.03-1.75-1.75-3.14-1.63-2.78,.18-5.5,.54-8.22,.97-1.39,.18-2.3,1.27-1.99,2.24,.54,1.93,1.09,3.99,1.63,5.92,.3,1.03,1.69,1.57,3.14,1.39,2.84-.48,5.68-.85,8.58-1.09,1.45-.18,2.36-1.03,1.99-1.99-.6-1.93-1.33-3.87-1.99-5.8Z"/>
      <path class="cls-3" d="M364.86,47.2c-.18-1.03-1.39-1.39-2.84-.66-2.78,1.39-5.56,2.9-8.28,4.47-1.39,.85-2.48,2.36-2.42,3.44,.18,2.05,.24,4.11,.36,6.16,.06,1.03,1.27,1.21,2.78,.36,2.84-1.57,5.74-3.08,8.64-4.53,1.51-.73,2.6-2.12,2.48-3.14-.18-2.05-.42-4.05-.73-6.1Z"/>
      <path class="cls-3" d="M412.61,34.33c-.36-1.03-1.81-1.75-3.26-1.57-2.84,.24-5.74,.6-8.58,1.09-1.45,.24-2.42,1.27-2.12,2.3,.54,1.93,1.09,3.99,1.63,5.92,.3,1.03,1.75,1.57,3.26,1.39,3.02-.48,5.98-.91,8.94-1.21,1.57-.18,2.48-1.03,2.12-2.05-.66-1.99-1.33-3.93-1.99-5.86Z"/>
      <path class="cls-3" d="M366.32,58.56c-.18-1.03-1.45-1.33-2.96-.6-2.96,1.45-5.8,2.96-8.7,4.53-1.45,.85-2.6,2.36-2.54,3.44,.18,2.05,.24,4.11,.36,6.16,.06,1.03,1.39,1.21,2.9,.36,3.02-1.57,6.04-3.14,9.07-4.59,1.57-.73,2.72-2.12,2.6-3.14-.24-2.12-.48-4.17-.73-6.16Z"/>
      <path class="cls-3" d="M416.36,45.15c-.36-1.03-1.87-1.75-3.38-1.57-3.02,.3-5.98,.73-9.01,1.21-1.57,.24-2.54,1.33-2.24,2.36,.54,1.93,1.09,3.99,1.63,5.92,.3,1.03,1.75,1.57,3.38,1.27,3.14-.54,6.23-1.03,9.37-1.33,1.57-.18,2.6-1.09,2.24-2.05-.73-1.93-1.39-3.87-1.99-5.8Z"/>
      <path class="cls-3" d="M367.71,69.87c-.18-1.03-1.51-1.33-3.08-.6-3.08,1.45-6.1,2.96-9.13,4.59-1.57,.85-2.72,2.42-2.66,3.44,.18,2.05,.24,4.11,.36,6.16,.06,1.03,1.39,1.21,3.02,.36,3.14-1.63,6.29-3.14,9.49-4.59,1.63-.73,2.84-2.12,2.72-3.2-.18-2.05-.48-4.11-.73-6.16Z"/>
      <path class="cls-3" d="M385.05,63.28c-.18-1.03-1.69-1.45-3.26-.91-3.08,1.09-6.23,2.24-9.31,3.51-1.57,.66-2.78,2.05-2.6,3.08,.3,2.05,.54,4.05,.85,6.1,.18,1.03,1.57,1.33,3.2,.66,3.2-1.27,6.47-2.48,9.67-3.57,1.63-.54,2.84-1.81,2.66-2.84-.42-2.05-.85-4.05-1.21-6.04Z"/>
      <path class="cls-3" d="M402.52,58.56c-.3-1.03-1.75-1.57-3.38-1.21-3.14,.73-6.29,1.57-9.43,2.48-1.57,.48-2.72,1.75-2.48,2.78,.42,1.99,.85,4.05,1.27,6.04,.18,1.03,1.75,1.45,3.38,.97,3.26-.91,6.53-1.75,9.79-2.54,1.69-.36,2.78-1.51,2.48-2.48-.54-2.05-1.09-4.05-1.63-6.04Z"/>
    </g>
    <g>
      <path class="cls-1" d="M265.69,7.62c-.36,1.03-1.75,1.75-3.02,1.75-2.6,0-5.2,.18-7.8,.48-1.33,.18-2.05-.48-1.69-1.45,.79-1.87,1.57-3.81,2.36-5.68,.36-.97,1.75-1.93,3.02-2.12,2.48-.3,5.02-.54,7.55-.6,1.27,0,2.05,.73,1.69,1.75-.79,1.99-1.45,3.93-2.12,5.86Z"/>
      <path class="cls-1" d="M281.58,3.02c.3-1.03-.48-1.99-1.75-2.18-2.48-.36-4.9-.6-7.43-.73-1.27-.06-2.6,.73-2.96,1.75-.66,1.93-1.33,3.87-1.99,5.8-.36,1.03,.48,1.81,1.75,1.93,2.6,.18,5.2,.42,7.8,.85,1.33,.18,2.6-.42,2.9-1.45,.54-1.99,1.09-3.99,1.69-5.98Z"/>
      <path class="cls-1" d="M295.12,6.53c.18-1.03-.6-2.24-1.87-2.6-2.42-.73-4.84-1.45-7.31-1.93-1.27-.3-2.48,.36-2.78,1.39-.54,1.93-1.09,3.99-1.57,5.98-.3,1.03,.54,2.05,1.87,2.36,2.6,.54,5.14,1.27,7.68,2.05,1.27,.36,2.54-.06,2.78-1.09,.42-2.12,.85-4.17,1.21-6.16Z"/>
      <path class="cls-1" d="M308.6,12.33c.18-1.03-.73-2.42-1.93-3.02-2.42-1.21-4.77-2.24-7.19-3.14-1.21-.48-2.42,0-2.6,1.03-.36,1.99-.79,4.05-1.21,6.04-.18,1.03,.66,2.24,1.93,2.78,2.54,.97,5.08,2.05,7.55,3.2,1.27,.6,2.42,.3,2.6-.79,.3-2.05,.54-4.11,.85-6.1Z"/>
      <path class="cls-1" d="M321.77,20.25c.06-1.03-.85-2.6-2.05-3.38-2.36-1.57-4.71-3.02-7.07-4.41-1.21-.66-2.3-.36-2.42,.66-.24,2.05-.48,4.05-.73,6.1-.18,1.03,.79,2.42,2.05,3.08,2.48,1.39,4.96,2.84,7.43,4.41,1.27,.85,2.3,.66,2.42-.36,.06-1.99,.24-4.05,.36-6.1Z"/>
      <path class="cls-1" d="M334.59,30.52c0-1.03-.91-2.78-2.05-3.81-2.24-1.99-4.53-3.87-6.83-5.62-1.21-.91-2.18-.73-2.24,.3-.12,2.05-.24,4.11-.36,6.16-.06,1.03,.91,2.6,2.12,3.51,2.42,1.75,4.84,3.63,7.19,5.68,1.21,1.03,2.18,1.03,2.18,0-.06-2.12,0-4.17,0-6.23Z"/>
      <path class="cls-1" d="M263.93,12.63c.36-1.03-.48-1.81-1.75-1.75-2.6,0-5.26,.18-7.86,.48-1.33,.18-2.78,1.09-3.14,2.05-.79,1.87-1.57,3.81-2.36,5.68-.36,.97,.36,1.57,1.75,1.51,2.72-.24,5.44-.36,8.16-.36,1.39,0,2.84-.73,3.14-1.75,.66-1.99,1.39-3.93,2.05-5.86Z"/>
      <path class="cls-1" d="M334.46,42c0-1.03-.97-2.78-2.18-3.81-2.42-1.99-4.77-3.87-7.19-5.68-1.27-.91-2.3-.73-2.36,.3-.12,2.05-.24,4.11-.36,6.16-.06,1.03,.97,2.6,2.24,3.51,2.54,1.75,5.08,3.69,7.55,5.68,1.27,1.03,2.3,1.03,2.3,0v-6.16Z"/>
      <path class="cls-1" d="M260.13,23.39c.36-1.03-.48-1.81-1.87-1.87-2.78,0-5.5,.12-8.22,.3-1.39,.12-2.84,1.03-3.26,2.05-.79,1.87-1.57,3.81-2.36,5.68-.36,.97,.42,1.63,1.87,1.57,2.84-.18,5.68-.24,8.52-.18,1.45,0,2.96-.73,3.26-1.75,.66-1.93,1.33-3.87,2.05-5.8Z"/>
      <path class="cls-1" d="M290.59,28.95c.18-1.03-.73-2.24-2.12-2.66-2.72-.85-5.44-1.57-8.1-2.12-1.39-.3-2.78,.3-3.02,1.33-.54,1.99-1.09,3.99-1.57,5.98-.3,1.03,.66,2.05,2.12,2.42,2.84,.66,5.68,1.39,8.52,2.24,1.45,.42,2.78,0,3.02-1.09,.36-2.05,.73-4.11,1.15-6.1Z"/>
      <path class="cls-1" d="M305.57,34.93c.18-1.03-.85-2.42-2.24-3.02-2.66-1.21-5.38-2.3-8.04-3.32-1.39-.48-2.66-.06-2.84,.97-.36,1.99-.79,4.05-1.21,6.04-.18,1.03,.79,2.24,2.24,2.78,2.84,1.03,5.62,2.12,8.4,3.32,1.45,.6,2.66,.3,2.84-.73,.3-1.93,.54-3.99,.85-6.04Z"/>
      <path class="cls-1" d="M320.26,43.09c.06-1.03-.97-2.6-2.3-3.38-2.6-1.57-5.26-3.08-7.92-4.47-1.39-.73-2.54-.36-2.66,.66-.24,2.05-.48,4.05-.73,6.1-.18,1.03,.91,2.42,2.3,3.14,2.78,1.39,5.56,2.9,8.28,4.47,1.39,.85,2.6,.66,2.66-.36,.12-2.12,.24-4.11,.36-6.16Z"/>
      <path class="cls-1" d="M334.46,53.43c0-1.03-1.03-2.78-2.3-3.81-2.48-1.99-5.02-3.87-7.62-5.68-1.33-.91-2.42-.73-2.48,.3-.12,2.05-.24,4.11-.36,6.16-.06,1.03,1.03,2.6,2.36,3.51,2.66,1.75,5.32,3.69,7.92,5.68,1.33,1.03,2.42,1.03,2.42,0,.06-2.05,.06-4.11,.06-6.16Z"/>
      <path class="cls-1" d="M256.32,34.21c.36-1.03-.54-1.87-1.99-1.87-2.84-.06-5.74,0-8.58,.18-1.45,.12-2.96,1.03-3.32,1.93-.79,1.87-1.57,3.81-2.36,5.68-.36,.97,.48,1.69,1.99,1.57,2.96-.18,5.92-.18,8.88-.06,1.57,0,3.02-.66,3.38-1.69,.6-1.87,1.33-3.81,1.99-5.74Z"/>
      <path class="cls-1" d="M319.54,54.52c.06-1.03-1.03-2.6-2.42-3.44-2.78-1.57-5.5-3.08-8.28-4.47-1.45-.73-2.66-.42-2.84,.66-.24,2.05-.48,4.05-.73,6.1-.18,1.03,.97,2.48,2.48,3.14,2.9,1.45,5.8,2.96,8.64,4.53,1.45,.85,2.66,.66,2.78-.36,.12-2.12,.18-4.17,.36-6.16Z"/>
      <path class="cls-1" d="M334.4,64.85c0-1.03-1.09-2.78-2.42-3.81-2.6-1.99-5.26-3.87-7.98-5.68-1.39-.91-2.54-.73-2.6,.3-.12,2.05-.24,4.11-.36,6.16-.06,1.03,1.09,2.6,2.48,3.51,2.84,1.75,5.56,3.69,8.28,5.68,1.39,1.03,2.48,1.03,2.48,0,.12-2.05,.12-4.11,.12-6.16Z"/>
      <path class="cls-1" d="M252.51,44.97c.36-1.03-.6-1.87-2.12-1.93-3.02-.12-5.98-.06-8.94,.06-1.51,.06-3.08,.97-3.44,1.93-.79,1.87-1.57,3.81-2.36,5.68-.36,.97,.54,1.69,2.12,1.63,3.08-.12,6.16-.06,9.25,.06,1.57,.06,3.14-.66,3.51-1.63,.6-1.93,1.33-3.87,1.99-5.8Z"/>
      <path class="cls-1" d="M285.99,51.37c.18-1.03-.85-2.24-2.42-2.72-3.02-.91-5.98-1.69-9.01-2.36-1.57-.36-3.02,.18-3.26,1.27-.54,1.93-1.09,3.99-1.57,5.98-.3,1.03,.79,2.12,2.42,2.48,3.14,.73,6.23,1.57,9.37,2.48,1.57,.48,3.02,0,3.26-1.03,.36-2.05,.79-4.11,1.21-6.1Z"/>
      <path class="cls-1" d="M302.55,57.6c.18-1.03-.97-2.42-2.48-3.08-2.96-1.27-5.92-2.42-8.88-3.44-1.51-.54-2.96-.12-3.08,.91-.36,1.99-.79,4.05-1.21,6.04-.18,1.03,.91,2.3,2.48,2.84,3.08,1.09,6.23,2.24,9.31,3.51,1.57,.66,2.96,.36,3.08-.73,.3-1.93,.54-3.99,.79-6.04Z"/>
      <path class="cls-1" d="M318.81,65.94c.06-1.03-1.09-2.6-2.54-3.44-2.9-1.57-5.8-3.14-8.7-4.53-1.51-.73-2.84-.42-2.96,.6-.24,2.05-.48,4.05-.73,6.1-.18,1.03,1.03,2.48,2.6,3.14,3.02,1.45,6.04,2.96,9.07,4.59,1.57,.85,2.84,.66,2.9-.36,.06-2.05,.24-4.11,.36-6.1Z"/>
      <path class="cls-1" d="M334.34,76.27c0-1.03-1.09-2.78-2.48-3.81-2.78-1.99-5.56-3.87-8.34-5.68-1.45-.91-2.66-.79-2.72,.3-.12,2.05-.24,4.11-.36,6.16-.06,1.03,1.09,2.6,2.6,3.51,2.96,1.75,5.8,3.69,8.64,5.68,1.45,1.03,2.6,1.03,2.6,0,.06-2.05,.06-4.11,.06-6.16Z"/>
      <path class="cls-1" d="M248.7,55.78c.36-1.03-.66-1.87-2.24-1.93-3.08-.18-6.23-.18-9.31-.06-1.57,0-3.14,.91-3.57,1.87-.79,1.87-1.57,3.81-2.36,5.68-.36,.97,.54,1.75,2.24,1.69,3.14-.06,6.41,0,9.61,.18,1.63,.12,3.26-.6,3.63-1.57,.6-2.05,1.27-3.99,1.99-5.86Z"/>
      <path class="cls-1" d="M283.7,62.61c.18-1.03-.91-2.3-2.48-2.78-3.14-.91-6.29-1.75-9.43-2.48-1.57-.36-3.08,.18-3.38,1.21-.54,1.93-1.09,3.99-1.57,5.98-.3,1.03,.85,2.12,2.54,2.48,3.26,.73,6.53,1.57,9.79,2.54,1.69,.48,3.14,.06,3.38-.97,.3-1.99,.79-4.05,1.15-5.98Z"/>
      <path class="cls-1" d="M301.1,68.96c.18-1.03-1.03-2.42-2.6-3.08-3.08-1.27-6.23-2.42-9.31-3.51-1.57-.54-3.02-.18-3.26,.91-.36,1.99-.79,4.05-1.21,6.04-.18,1.03,.97,2.3,2.66,2.84,3.26,1.09,6.53,2.3,9.67,3.57,1.63,.66,3.08,.36,3.2-.66,.3-2.05,.54-4.05,.85-6.1Z"/>
      <path class="cls-1" d="M318.09,77.3c.06-1.03-1.09-2.6-2.66-3.44-3.02-1.63-6.04-3.14-9.13-4.59-1.57-.73-2.96-.42-3.08,.6-.24,2.05-.48,4.05-.73,6.1-.18,1.03,1.09,2.48,2.72,3.2,3.14,1.45,6.35,2.96,9.49,4.59,1.57,.85,2.96,.66,3.02-.36,.06-1.99,.24-4.05,.36-6.1Z"/>
      <path class="cls-1" d="M334.28,87.7c0-1.03-1.15-2.78-2.6-3.81-2.84-1.99-5.8-3.93-8.7-5.68-1.51-.91-2.78-.79-2.84,.3-.12,2.05-.24,4.11-.36,6.16-.06,1.03,1.21,2.6,2.78,3.51,3.08,1.75,6.1,3.69,9.07,5.68,1.51,1.03,2.72,1.03,2.72,0-.06-2.05-.06-4.11-.06-6.16Z"/>
      <path class="cls-1" d="M244.9,66.54c.36-1.03-.73-1.93-2.36-1.99-3.26-.18-6.47-.24-9.67-.18-1.63,0-3.26,.91-3.69,1.87-.79,1.87-1.57,3.81-2.36,5.68-.36,.97,.6,1.75,2.3,1.75,3.26,0,6.59,.12,9.97,.3,1.75,.12,3.38-.54,3.69-1.57,.79-1.99,1.45-3.93,2.12-5.86Z"/>
      <path class="cls-1" d="M263.09,69.14c.3-1.03-.85-2.12-2.48-2.42-3.26-.6-6.53-1.09-9.85-1.45-1.69-.18-3.26,.48-3.63,1.51-.66,1.93-1.33,3.87-1.99,5.8-.36,1.03,.79,1.93,2.48,2.12,3.38,.42,6.77,.97,10.15,1.57,1.75,.3,3.32-.18,3.63-1.21,.6-1.93,1.15-3.99,1.69-5.92Z"/>
      <path class="cls-1" d="M281.4,73.79c.18-1.03-.97-2.3-2.66-2.78-3.26-.97-6.59-1.75-9.85-2.6-1.69-.36-3.26,.18-3.51,1.21-.54,1.99-1.09,3.99-1.57,5.98-.3,1.03,.91,2.12,2.66,2.54,3.38,.79,6.83,1.69,10.21,2.66,1.75,.48,3.32,.12,3.51-.91,.42-2.12,.79-4.11,1.21-6.1Z"/>
      <path class="cls-1" d="M299.59,80.32c.18-1.03-1.09-2.48-2.78-3.08-3.26-1.27-6.53-2.48-9.73-3.57-1.69-.54-3.14-.18-3.38,.91-.36,1.99-.79,4.05-1.21,6.04-.18,1.03,1.03,2.3,2.78,2.9,3.38,1.15,6.77,2.36,10.15,3.63,1.75,.66,3.2,.36,3.32-.66,.24-2.12,.54-4.17,.85-6.16Z"/>
      <path class="cls-1" d="M317.3,88.72c.06-1.03-1.21-2.6-2.78-3.44-3.14-1.63-6.35-3.14-9.49-4.59-1.63-.73-3.08-.48-3.2,.54-.24,2.05-.48,4.05-.73,6.1-.18,1.03,1.15,2.48,2.84,3.2,3.32,1.45,6.65,3.02,9.85,4.65,1.69,.85,3.08,.66,3.14-.36,.12-1.99,.24-4.05,.36-6.1Z"/>
      <path class="cls-1" d="M334.28,99.18c0-1.03-1.21-2.78-2.72-3.81-2.96-1.99-6.04-3.93-9.13-5.68-1.57-.91-2.9-.79-2.96,.3-.12,2.05-.24,4.11-.36,6.16-.06,1.03,1.21,2.6,2.84,3.51,3.14,1.81,6.35,3.69,9.43,5.68,1.57,1.03,2.84,1.03,2.84,0,0-2.05,.06-4.17,.06-6.16Z"/>
      <path class="cls-1" d="M347.88,27.5c.06,1.03-.91,2.6-2.12,3.51-2.42,1.75-4.84,3.63-7.19,5.68-1.21,1.03-2.18,1.03-2.18,0v-6.16c0-1.03,.91-2.78,2.05-3.81,2.24-1.99,4.53-3.87,6.83-5.62,1.21-.91,2.18-.73,2.24,.3,.12,2.05,.24,4.11,.36,6.1Z"/>
      <path class="cls-1" d="M360.63,13.18c-.18-1.03-1.21-1.39-2.42-.66-2.36,1.39-4.71,2.84-7.07,4.41-1.21,.79-2.12,2.3-2.05,3.38,.18,2.05,.24,4.11,.36,6.16,.06,1.03,1.15,1.21,2.42,.36,2.48-1.57,4.9-3.08,7.43-4.41,1.27-.73,2.24-2.05,2.05-3.08-.18-2.12-.42-4.17-.73-6.16Z"/>
      <path class="cls-1" d="M374.05,7.13c-.18-1.03-1.39-1.51-2.6-1.03-2.42,.97-4.84,1.99-7.19,3.14-1.21,.6-2.05,1.93-1.93,3.02,.3,2.05,.54,4.05,.85,6.1,.18,1.03,1.27,1.39,2.6,.79,2.48-1.21,5.02-2.24,7.55-3.2,1.27-.48,2.18-1.75,1.93-2.78-.42-1.99-.79-4.05-1.21-6.04Z"/>
      <path class="cls-1" d="M387.65,3.38c-.3-1.03-1.51-1.63-2.78-1.39-2.42,.54-4.9,1.21-7.31,1.93-1.27,.36-2.05,1.57-1.87,2.6,.42,1.99,.85,4.05,1.27,6.04,.18,1.03,1.45,1.51,2.78,1.09,2.54-.79,5.08-1.45,7.68-2.05,1.33-.3,2.12-1.33,1.87-2.36-.6-1.93-1.09-3.93-1.63-5.86Z"/>
      <path class="cls-1" d="M401.43,1.87c-.36-1.03-1.63-1.75-2.96-1.75-2.48,.12-4.96,.36-7.43,.73-1.27,.18-2.05,1.21-1.75,2.18,.54,1.93,1.09,3.99,1.63,5.92,.3,1.03,1.57,1.63,2.9,1.45,2.6-.36,5.2-.66,7.8-.85,1.33-.06,2.12-.91,1.75-1.93-.54-1.87-1.21-3.81-1.93-5.74Z"/>
      <path class="cls-1" d="M415.45,2.78c-.36-.97-1.75-1.93-3.02-2.12-2.48-.3-5.02-.54-7.55-.6-1.27,0-2.05,.73-1.69,1.75,.66,1.93,1.39,3.87,2.05,5.8,.36,1.03,1.75,1.75,3.02,1.75,2.6,0,5.2,.18,7.8,.48,1.33,.18,2.05-.48,1.69-1.45-.73-1.81-1.51-3.69-2.3-5.62Z"/>
      <path class="cls-1" d="M348.18,32.82c-.06-1.03-1.15-1.21-2.36-.3-2.42,1.75-4.84,3.69-7.19,5.68-1.21,1.03-2.18,2.78-2.18,3.81v6.16c0,1.09,1.03,1.03,2.3,0,2.48-1.99,5.02-3.87,7.55-5.68,1.27-.91,2.3-2.48,2.24-3.51-.12-2.05-.24-4.11-.36-6.16Z"/>
      <path class="cls-1" d="M405.18,12.69c-.36-1.03-1.75-1.75-3.02-1.69-2.6,.18-5.2,.48-7.8,.85-1.33,.18-2.18,1.21-1.87,2.24,.54,1.93,1.09,3.99,1.63,5.92,.3,1.03,1.63,1.63,3.02,1.45,2.72-.42,5.44-.73,8.16-.97,1.39-.12,2.24-.97,1.87-1.93-.66-1.99-1.33-3.93-1.99-5.86Z"/>
      <path class="cls-1" d="M419.8,13.36c-.36-.97-1.81-1.93-3.14-2.05-2.66-.3-5.26-.42-7.86-.48-1.33,0-2.12,.85-1.75,1.75,.66,1.93,1.39,3.87,2.05,5.8,.36,1.03,1.75,1.75,3.14,1.75,2.72,0,5.44,.12,8.16,.36,1.39,.12,2.18-.54,1.75-1.51-.79-1.81-1.57-3.75-2.36-5.62Z"/>
      <path class="cls-1" d="M348.85,44.24c-.06-1.03-1.21-1.21-2.48-.3-2.6,1.75-5.08,3.69-7.62,5.68-1.27,1.03-2.3,2.78-2.3,3.81v6.16c0,1.09,1.09,1.03,2.42,0,2.6-1.99,5.26-3.87,7.92-5.68,1.39-.91,2.42-2.48,2.36-3.51-.12-2.05-.24-4.17-.3-6.16Z"/>
      <path class="cls-1" d="M378.46,29.61c-.18-1.03-1.51-1.51-2.84-.97-2.66,1.03-5.38,2.12-8.04,3.32-1.39,.6-2.36,1.99-2.24,3.02,.3,2.05,.54,4.05,.85,6.1,.18,1.03,1.39,1.39,2.84,.73,2.78-1.21,5.62-2.36,8.4-3.32,1.45-.54,2.42-1.75,2.24-2.78-.42-2.12-.85-4.11-1.21-6.1Z"/>
      <path class="cls-1" d="M393.57,25.44c-.3-1.03-1.63-1.57-3.02-1.33-2.72,.6-5.44,1.33-8.1,2.12-1.39,.42-2.3,1.63-2.12,2.66,.42,1.99,.85,4.05,1.27,6.04,.18,1.03,1.57,1.51,3.02,1.09,2.84-.85,5.68-1.57,8.52-2.24,1.45-.3,2.42-1.39,2.12-2.42-.6-1.93-1.15-3.93-1.69-5.92Z"/>
      <path class="cls-1" d="M424.15,23.93c-.36-.97-1.87-1.87-3.26-2.05-2.78-.24-5.5-.36-8.22-.3-1.39,0-2.24,.85-1.87,1.87,.66,1.93,1.39,3.87,2.05,5.8,.36,1.03,1.81,1.75,3.26,1.75,2.84,0,5.68,0,8.52,.18,1.45,.12,2.3-.54,1.87-1.57-.79-1.93-1.51-3.81-2.36-5.68Z"/>
      <path class="cls-1" d="M349.45,55.66c-.06-1.03-1.27-1.21-2.6-.3-2.66,1.75-5.38,3.69-7.98,5.68-1.33,1.03-2.42,2.78-2.42,3.81v6.16c0,1.09,1.09,1.03,2.48,0,2.72-1.99,5.5-3.87,8.28-5.68,1.45-.91,2.6-2.48,2.48-3.51,.06-2.05-.12-4.17-.24-6.16Z"/>
      <path class="cls-1" d="M380.64,40.8c-.18-1.03-1.57-1.45-3.02-.97-2.84,1.03-5.68,2.12-8.46,3.38-1.45,.6-2.48,1.99-2.36,3.02,.3,2.05,.54,4.05,.85,6.1,.18,1.03,1.45,1.39,2.96,.73,2.96-1.27,5.86-2.42,8.82-3.44,1.51-.54,2.6-1.75,2.36-2.84-.36-1.93-.73-3.93-1.15-5.98Z"/>
      <path class="cls-1" d="M396.59,36.5c-.3-1.03-1.69-1.57-3.14-1.27-2.84,.66-5.68,1.39-8.58,2.24-1.45,.42-2.48,1.63-2.24,2.66,.42,1.99,.85,4.05,1.27,6.04,.18,1.03,1.57,1.45,3.14,1.03,2.96-.91,5.98-1.69,8.94-2.36,1.57-.36,2.54-1.45,2.24-2.42-.54-1.99-1.09-3.93-1.63-5.92Z"/>
      <path class="cls-1" d="M428.57,34.51c-.36-.97-1.87-1.87-3.32-1.93-2.84-.18-5.68-.24-8.58-.18-1.45,0-2.36,.91-1.99,1.87,.66,1.93,1.39,3.87,2.05,5.8,.36,1.03,1.87,1.75,3.38,1.69,2.96-.12,5.92-.06,8.88,.06,1.51,.06,2.42-.6,1.99-1.57-.85-1.99-1.63-3.87-2.42-5.74Z"/>
      <path class="cls-1" d="M350.12,67.09c-.06-1.03-1.27-1.21-2.72-.3-2.84,1.75-5.62,3.69-8.34,5.68-1.39,1.03-2.48,2.78-2.48,3.81v6.16c0,1.09,1.21,1.03,2.6,0,2.84-1.99,5.74-3.93,8.64-5.68,1.51-.91,2.66-2.48,2.6-3.51-.06-2.05-.12-4.11-.3-6.16Z"/>
      <path class="cls-1" d="M382.81,52.04c-.18-1.03-1.57-1.45-3.08-.91-2.96,1.03-5.98,2.24-8.88,3.44-1.51,.66-2.6,2.05-2.48,3.08,.3,2.05,.54,4.05,.85,6.1,.18,1.03,1.51,1.39,3.08,.73,3.08-1.27,6.16-2.42,9.31-3.51,1.57-.54,2.72-1.75,2.48-2.84-.42-2.05-.85-4.11-1.27-6.1Z"/>
      <path class="cls-1" d="M399.56,47.5c-.3-1.03-1.75-1.57-3.26-1.27-3.02,.66-5.98,1.45-9.01,2.36-1.57,.48-2.6,1.69-2.42,2.72,.42,1.99,.85,4.05,1.27,6.04,.18,1.03,1.69,1.45,3.26,1.03,3.08-.91,6.23-1.75,9.37-2.48,1.57-.36,2.66-1.45,2.42-2.48-.54-1.93-1.09-3.93-1.63-5.92Z"/>
      <path class="cls-1" d="M432.92,45.03c-.36-.97-1.93-1.87-3.44-1.93-2.96-.18-5.98-.18-8.94-.06-1.57,0-2.48,.91-2.12,1.93,.66,1.93,1.39,3.87,2.05,5.8,.36,1.03,1.93,1.75,3.51,1.63,3.08-.18,6.16-.18,9.25-.06,1.57,0,2.48-.66,2.12-1.63-.85-1.87-1.63-3.75-2.42-5.68Z"/>
      <path class="cls-1" d="M350.78,78.51c-.06-1.03-1.39-1.21-2.84-.3-2.96,1.75-5.86,3.69-8.7,5.68-1.45,1.03-2.6,2.78-2.6,3.81v6.16c0,1.09,1.21,1.03,2.72,0,2.96-1.99,5.98-3.93,9.07-5.68,1.57-.91,2.78-2.48,2.78-3.51-.18-2.05-.3-4.11-.42-6.16Z"/>
      <path class="cls-1" d="M420.04,55.97c-.36-1.03-1.93-1.69-3.51-1.57-3.14,.3-6.29,.79-9.43,1.39-1.57,.3-2.66,1.39-2.42,2.42,.54,1.93,1.09,3.99,1.63,5.92,.3,1.03,1.87,1.57,3.51,1.27,3.26-.54,6.53-1.09,9.73-1.45,1.63-.18,2.72-1.09,2.36-2.12-.54-1.99-1.21-3.99-1.87-5.86Z"/>
      <path class="cls-1" d="M437.33,55.6c-.36-.97-1.99-1.87-3.57-1.87-3.08-.12-6.16-.06-9.31,.06-1.57,.06-2.6,.97-2.24,1.93,.66,1.93,1.39,3.87,2.05,5.8,.36,1.03,1.93,1.69,3.63,1.57,3.2-.18,6.41-.24,9.61-.18,1.57,0,2.6-.66,2.24-1.69-.85-1.81-1.63-3.69-2.42-5.62Z"/>
      <path class="cls-1" d="M351.45,89.93c-.06-1.03-1.39-1.21-2.96-.3-3.08,1.81-6.1,3.69-9.13,5.68-1.57,1.03-2.72,2.78-2.72,3.81v6.16c0,1.03,1.27,1.03,2.84,0,3.08-1.99,6.23-3.93,9.43-5.68,1.63-.91,2.96-2.48,2.84-3.51-.06-2.05-.18-4.11-.3-6.16Z"/>
      <path class="cls-1" d="M369.1,81.23c-.18-1.03-1.57-1.33-3.2-.54-3.2,1.45-6.41,3.02-9.49,4.59-1.57,.85-2.84,2.42-2.78,3.44,.18,2.05,.24,4.11,.36,6.16,.06,1.03,1.45,1.21,3.14,.36,3.26-1.63,6.59-3.14,9.85-4.65,1.75-.73,2.96-2.18,2.84-3.2-.18-2.12-.48-4.11-.73-6.16Z"/>
      <path class="cls-1" d="M387.23,74.52c-.18-1.03-1.75-1.45-3.38-.91-3.26,1.09-6.53,2.3-9.73,3.57-1.63,.66-2.84,2.05-2.78,3.08,.3,2.05,.54,4.05,.85,6.1,.18,1.03,1.63,1.33,3.32,.66,3.32-1.33,6.77-2.54,10.15-3.63,1.75-.54,2.96-1.87,2.78-2.9-.42-1.99-.79-3.99-1.21-5.98Z"/>
      <path class="cls-1" d="M405.48,69.62c-.3-1.03-1.87-1.57-3.51-1.21-3.26,.73-6.59,1.57-9.85,2.6-1.69,.48-2.84,1.75-2.66,2.78,.42,1.99,.85,4.05,1.27,6.04,.18,1.03,1.75,1.45,3.51,.91,3.38-.97,6.83-1.87,10.21-2.66,1.75-.36,2.96-1.57,2.66-2.54-.54-1.99-1.09-3.93-1.63-5.92Z"/>
      <path class="cls-1" d="M423.79,66.78c-.36-1.03-1.93-1.69-3.63-1.51-3.26,.36-6.53,.85-9.85,1.45-1.69,.3-2.78,1.39-2.48,2.42,.54,1.93,1.09,3.99,1.63,5.92,.3,1.03,1.93,1.57,3.63,1.21,3.38-.66,6.77-1.15,10.15-1.57,1.75-.18,2.84-1.21,2.48-2.12-.66-1.93-1.27-3.93-1.93-5.8Z"/>
      <path class="cls-1" d="M441.68,66.18c-.36-.97-2.05-1.81-3.69-1.87-3.14-.06-6.41,0-9.67,.18-1.63,.12-2.72,1.03-2.36,1.99,.66,1.93,1.39,3.87,2.05,5.8,.36,1.03,2.05,1.69,3.69,1.57,3.32-.18,6.65-.36,9.97-.3,1.69,0,2.72-.73,2.3-1.75-.73-1.81-1.51-3.75-2.3-5.62Z"/>
    </g>
  </g>
</svg>