<?xml version="1.0" encoding="UTF-8"?>
<svg id="Layer_1" data-name="Layer 1" xmlns="http://www.w3.org/2000/svg" viewBox="0 0 512 114.63">
  <defs>
    <style>
      .cls-1 {
        fill: #fff;
      }

      .cls-2 {
        fill: red;
      }
    </style>
  </defs>
  <g id="_395-youtube" data-name="395-youtube">
    <g>
      <path class="cls-2" d="M327.63,22.02c-1.72-6.47-6.79-11.57-13.22-13.3-11.66-3.14-58.41-3.14-58.41-3.14,0,0-46.75,0-58.41,3.14-6.43,1.73-11.5,6.83-13.22,13.3-3.12,11.74-3.12,36.22-3.12,36.22,0,0,0,24.49,3.12,36.22,1.72,6.47,6.79,11.36,13.22,13.09,11.66,3.14,58.41,3.14,58.41,3.14,0,0,46.75,0,58.41-3.14,6.43-1.73,11.5-6.62,13.22-13.09,3.12-11.73,3.12-36.22,3.12-36.22,0,0,0-24.48-3.12-36.22Z"/>
      <polygon class="cls-1" points="240.71 80.47 240.71 36.01 279.79 58.24 240.71 80.47"/>
    </g>
  </g>
</svg>